<svg width="174" height="98" fill="none" xmlns="http://www.w3.org/2000/svg"><g clip-path="url(#a)"><path d="M15.914 5.992h-5.95V.025H5.977v5.967H.027V9.99h5.95v5.967h3.987V9.99h5.95V5.992z" fill="#00D1D9"/><path d="M118.908 21.493c0-3.014-2.453-5.536-5.52-5.536h-6.012v18.208h2.024v-7.136h4.54l3.251 7.197h2.208l-3.619-7.75c1.84-.923 3.128-2.83 3.128-4.983zm-5.52 3.506h-4.049v-7.012h4.049a3.5 3.5 0 0 1 3.496 3.506 3.5 3.5 0 0 1-3.496 3.506zM47.26 28.63c0 2.706-1.84 3.813-4.048 3.813-2.209 0-4.05-1.107-4.05-3.814V15.957H37.14v12.671c0 3.568 2.453 5.783 6.072 5.783 3.558 0 6.074-2.215 6.074-5.783V15.957H47.26v12.671zm-18.955 1.353-2.699-14.025h-2.454l-2.699 14.025-2.515-14.025h-2.024l3.497 18.208h2.147l2.883-14.087 2.883 14.087h2.147l3.496-18.208h-2.024l-2.638 14.025zm68.95 12.18h-6.012v18.207h2.024v-7.135h4.049c3.006 0 5.521-2.46 5.521-5.536-.062-3.076-2.515-5.537-5.583-5.537zm0 9.042h-3.988V44.19h4.049a3.5 3.5 0 0 1 3.496 3.507c0 1.968-1.656 3.506-3.558 3.506zm51.159-35.247-5.827 18.208h2.147l1.349-4.183h6.871l1.349 4.183h2.147l-5.828-18.208h-2.208zm-1.717 11.995 2.821-8.735 2.822 8.735h-5.643zm-15.704 13.963c-3.251 0-5.889 2.645-5.889 5.906v6.89c0 3.26 2.638 5.904 5.889 5.904 3.251 0 5.889-2.645 5.889-5.905v-6.89c0-3.26-2.638-5.905-5.889-5.905zm3.864 12.795a3.853 3.853 0 0 1-3.864 3.875 3.854 3.854 0 0 1-3.865-3.875v-6.89a3.854 3.854 0 0 1 3.865-3.875 3.853 3.853 0 0 1 3.864 3.876v6.89zM61.124 41.915c-3.252 0-5.89 2.645-5.89 5.906v6.89c0 3.26 2.638 5.904 5.89 5.904 3.25 0 5.889-2.645 5.889-5.905v-6.89c0-3.26-2.638-5.905-5.89-5.905zm3.864 12.795a3.854 3.854 0 0 1-3.864 3.875 3.854 3.854 0 0 1-3.865-3.875v-6.89a3.854 3.854 0 0 1 3.865-3.875 3.854 3.854 0 0 1 3.864 3.876v6.89zm.184-24.728-8.22-14.025h-1.901v18.208h2.024V20.14l8.22 14.025h1.901V15.957h-2.024v14.025zm106.736-14.025v14.025l-8.22-14.025h-1.901v18.208h2.024V20.14l8.22 14.025h1.902V15.957h-2.025zm-18.402 40.23-8.22-14.026h-1.902V60.37h2.024V46.344l8.22 14.025h1.902V42.161h-2.024v14.025zM84.863 28.258v-6.397c0-3.26-2.638-5.905-5.889-5.905h-6.011v18.208h6.011c3.251 0 5.89-2.645 5.89-5.906zm-9.876-10.272h4.049a3.854 3.854 0 0 1 3.864 3.875v6.397a3.854 3.854 0 0 1-3.864 3.876h-4.049V17.987zm27.052 14.148H92.96v-6.09h8.098v-2.03H92.96v-6.028h9.079v-2.03H90.936v18.208h11.103v-2.03zm28.954-7.197-4.54-8.981h-2.085v18.208h2.024V20.14l3.987 7.996h1.289l3.987-7.996v14.025h2.024V15.957h-2.085l-4.601 8.98zM16.957 44.19h6.502V60.37h2.024V44.191h6.441v-2.03H16.957v2.03zm30.242 6.09h-7.913v-8.12H37.26V60.37h2.025v-8.058h7.913v8.058h2.024V42.161H47.2v8.12zm67.477 0-2.883-1.169c-1.963-.8-2.209-1.722-2.209-2.522 0-.738.307-1.353.798-1.784.674-.553 1.656-.86 2.821-.86 1.166 0 2.147.307 2.822.86.614.554.92 1.292.92 2.215v.307h2.025v-.307c0-3.137-2.331-5.106-5.705-5.106s-5.644 1.907-5.644 4.675c0 2.46 1.718 3.753 3.804 4.552l2.576 1.046c2.515.984 3.19 1.66 3.19 3.199 0 .984-.307 1.722-.982 2.337-.736.615-1.779.923-3.067.923-1.288 0-2.392-.308-3.128-.923-.614-.553-.982-1.23-.982-2.153v-.43h-2.024v.43c0 3.138 2.515 5.106 6.073 5.106 3.558 0 6.073-2.092 6.073-5.29 0-3.199-2.331-4.245-4.478-5.106zm-35.763.861-4.54-8.98h-2.085v18.207h2.024V46.344l3.987 7.997h1.289l3.987-7.997V60.37h2.024V42.161h-2.147l-4.54 8.981z" fill="#0A47ED"/><path d="M26.649 91.925h2.024v.554c0 1.661-.552 3.014-1.595 3.999-1.104.984-2.453 1.476-4.232 1.476-1.78 0-3.19-.554-4.294-1.6-1.104-1.045-1.657-2.46-1.657-4.244v-7.074c0-1.784.553-3.199 1.595-4.244 1.105-1.046 2.516-1.538 4.294-1.538 1.718 0 3.129.492 4.233 1.476 1.104.984 1.595 2.338 1.595 3.998v.431h-2.024v-.492c0-1.046-.368-1.907-1.043-2.584-.675-.676-1.595-.984-2.822-.984-1.165 0-2.147.37-2.822 1.107-.674.739-1.043 1.661-1.043 2.769v7.32c0 1.107.369 2.03 1.043 2.768.675.738 1.595 1.107 2.822 1.107 1.166 0 2.147-.308 2.822-.984.675-.677 1.043-1.477 1.043-2.584v-.677h.061zm15.152-2.706v3.568c0 1.6-.491 2.89-1.411 3.814-.92.922-2.209 1.414-3.742 1.414-1.534 0-2.76-.492-3.742-1.414-.92-.923-1.41-2.215-1.41-3.814v-3.568c0-1.6.49-2.891 1.41-3.814.92-.923 2.147-1.415 3.742-1.415 1.533 0 2.76.492 3.742 1.415.92.923 1.41 2.215 1.41 3.814zm-8.282-.123v3.875c0 .984.246 1.784.798 2.4.552.614 1.288.922 2.27.922.981 0 1.717-.308 2.27-.923.551-.615.797-1.415.797-2.399v-3.875c0-.984-.246-1.784-.798-2.4-.552-.614-1.288-.922-2.27-.922-.981 0-1.717.308-2.27.923-.49.615-.797 1.415-.797 2.399zm13.373 8.673h-2.024V84.236H46.4l.246 1.6c.858-1.23 2.085-1.907 3.619-1.907 1.963 0 3.312.8 4.049 2.46.797-1.599 2.085-2.46 3.925-2.46 1.411 0 2.577.43 3.374 1.353.798.861 1.227 2.092 1.227 3.63v8.857h-2.024v-8.858c0-.922-.245-1.66-.736-2.214-.491-.615-1.227-.861-2.147-.861-.92 0-1.656.307-2.209.922-.552.616-.858 1.354-.858 2.276v8.797h-2.025v-8.858c0-.923-.245-1.661-.736-2.215-.49-.615-1.227-.86-2.147-.86-.92 0-1.656.307-2.208.922-.552.615-.859 1.415-.859 2.337v8.612zm21.347 0h-2.024V84.236h1.534l.245 1.6c.859-1.23 2.086-1.907 3.62-1.907 1.962 0 3.312.8 4.048 2.46.797-1.599 2.085-2.46 3.926-2.46 1.41 0 2.576.43 3.374 1.353.797.861 1.226 2.092 1.226 3.63v8.857h-2.024v-8.858c0-.922-.245-1.66-.736-2.214-.49-.615-1.227-.861-2.147-.861-.92 0-1.656.307-2.208.922-.552.616-.86 1.354-.86 2.276v8.797H74.19v-8.858c0-.923-.246-1.661-.737-2.215-.49-.615-1.226-.86-2.147-.86-.92 0-1.656.307-2.208.922-.552.615-.859 1.415-.859 2.337v8.612zm27.175-4.552h1.902v.185c0 1.415-.491 2.522-1.35 3.322-.92.8-2.147 1.23-3.619 1.23-1.534 0-2.76-.43-3.742-1.353-.92-.923-1.41-2.153-1.41-3.691v-3.691c0-1.6.49-2.891 1.41-3.814.92-.923 2.147-1.415 3.742-1.415 1.472 0 2.699.492 3.62 1.415.92.923 1.349 2.215 1.349 3.814v2.03h-8.097v1.907c0 .922.306 1.66.858 2.276.552.615 1.35.922 2.331.922.982 0 1.78-.246 2.27-.8.552-.553.797-1.23.797-2.03v-.307h-.06zm-6.257-4.183v.677h6.196v-.677c0-.984-.246-1.784-.798-2.46-.552-.615-1.288-.923-2.27-.923-.98 0-1.717.308-2.33.923-.491.615-.798 1.415-.798 2.46zm13.189 8.735h-2.024V84.236h1.533l.307 1.723c.797-1.354 2.024-1.969 3.558-1.969.122 0 .368 0 .674.062v1.907c-.429-.062-.736-.062-.797-.062-.981 0-1.779.308-2.392.923-.614.615-.921 1.415-.921 2.46v8.49h.062zm14.231-4.675h1.963v.246c0 1.477-.49 2.584-1.349 3.445-.92.861-2.147 1.23-3.681 1.23-1.533 0-2.76-.492-3.742-1.414-.92-.923-1.411-2.215-1.411-3.814v-3.568c0-1.6.491-2.891 1.411-3.814s2.147-1.415 3.742-1.415c1.534 0 2.699.43 3.681 1.292.92.861 1.411 1.969 1.411 3.383v.185h-2.025v-.308c0-.8-.245-1.415-.797-1.968-.552-.492-1.288-.8-2.27-.8-.981 0-1.717.308-2.269.923-.553.615-.798 1.415-.798 2.399v3.875c0 .984.245 1.784.798 2.4.552.614 1.288.922 2.269.922.982 0 1.779-.246 2.27-.8.552-.492.797-1.168.797-2.03v-.369zm12.76.123h1.901v.185c0 1.415-.429 2.522-1.349 3.322-.92.8-2.147 1.23-3.62 1.23-1.533 0-2.76-.43-3.741-1.353-.921-.923-1.411-2.153-1.411-3.691v-3.691c0-1.6.49-2.891 1.411-3.814.92-.923 2.147-1.415 3.741-1.415 1.473 0 2.7.492 3.62 1.415.92.923 1.349 2.215 1.349 3.814v2.03h-8.097v1.907c0 .922.307 1.66.859 2.276.552.615 1.349.922 2.331.922.981 0 1.779-.246 2.269-.8.553-.553.798-1.23.798-2.03v-.307h-.061zm-6.196-4.183v.677h6.257v-.677c0-.984-.245-1.784-.798-2.46-.552-.615-1.288-.923-2.269-.923-.982 0-1.718.308-2.331.923-.614.615-.859 1.415-.859 2.46z" fill="#00D1D9"/></g><defs><clipPath id="a"><path fill="#fff" d="M0 0h174v98H0z"/></clipPath></defs></svg>